<svg width="36" height="36" viewBox="0 0 36 36" fill="none" xmlns="http://www.w3.org/2000/svg">
<path d="M17.7375 33C17.1375 33 16.5625 32.8875 16.0125 32.6625C15.4625 32.4375 14.975 32.1125 14.55 31.6875L6.9 24L8.025 22.8375C8.425 22.4375 8.89375 22.1688 9.43125 22.0312C9.96875 21.8938 10.5 21.9 11.025 22.05L13.5 22.7625V10.5C13.5 10.075 13.6438 9.71875 13.9313 9.43125C14.2188 9.14375 14.575 9 15 9C15.425 9 15.7813 9.14375 16.0688 9.43125C16.3563 9.71875 16.5 10.075 16.5 10.5V26.7375L12.8625 25.725L16.6875 29.55C16.8125 29.675 16.9688 29.7813 17.1563 29.8688C17.3438 29.9563 17.5375 30 17.7375 30H24C24.825 30 25.5312 29.7063 26.1188 29.1188C26.7063 28.5313 27 27.825 27 27V21C27 20.575 27.1438 20.2188 27.4313 19.9313C27.7188 19.6438 28.075 19.5 28.5 19.5C28.925 19.5 29.2813 19.6438 29.5688 19.9313C29.8563 20.2188 30 20.575 30 21V27C30 28.65 29.4125 30.0625 28.2375 31.2375C27.0625 32.4125 25.65 33 24 33H17.7375ZM18 22.5V16.5C18 16.075 18.1438 15.7188 18.4313 15.4313C18.7188 15.1438 19.075 15 19.5 15C19.925 15 20.2812 15.1438 20.5688 15.4313C20.8563 15.7188 21 16.075 21 16.5V22.5H18ZM22.5 22.5V18C22.5 17.575 22.6438 17.2188 22.9313 16.9313C23.2188 16.6438 23.575 16.5 24 16.5C24.425 16.5 24.7812 16.6438 25.0688 16.9313C25.3563 17.2188 25.5 17.575 25.5 18V22.5H22.5ZM3 10.5V3H5.25V6.0375C7.05 4.5625 9.0375 3.4375 11.2125 2.6625C13.3875 1.8875 15.65 1.5 18 1.5C21.65 1.5 24.875 2.3375 27.675 4.0125C30.475 5.6875 32.25 7.85 33 10.5H30.6375C29.6875 8.4 28.0813 6.75 25.8188 5.55C23.5563 4.35 20.95 3.75 18 3.75C15.8 3.75 13.6875 4.1375 11.6625 4.9125C9.6375 5.6875 7.8 6.8 6.15 8.25H10.5V10.5H3Z" fill="#FFE8F8"/>
</svg>
