<svg width="24" height="24" viewBox="0 0 24 24" fill="none" xmlns="http://www.w3.org/2000/svg">
<g clip-path="url(#clip0_81_2779)">
<path d="M12 0C5.40001 0 0 5.40001 0 12C0 17.94 4.31954 22.8605 10.0195 23.8805L10.0922 23.8219C10.0883 23.8212 10.0844 23.8202 10.0805 23.8195V15.3598H7.08047V12H10.0805V9.35977C10.0805 6.35977 11.9998 4.68047 14.7598 4.68047C15.5998 4.68047 16.56 4.79953 17.4 4.91953V7.98047H15.8402C14.4002 7.98047 14.0402 8.69977 14.0402 9.65977V12H17.2195L16.6805 15.3598H14.0402V23.8195C14.0028 23.8263 13.9652 23.8307 13.9277 23.8371L13.9805 23.8805C19.6805 22.8605 24 17.94 24 12C24 5.40001 18.6 0 12 0Z" fill="#F1FF00"/>
</g>
<defs>
<clipPath id="clip0_81_2779">
<rect width="24" height="24" fill="white"/>
</clipPath>
</defs>
</svg>
