<svg width="29" height="31" viewBox="0 0 29 31" fill="none" xmlns="http://www.w3.org/2000/svg">
<path d="M15.3534 0.683594C7.20326 0.683594 0.59672 7.29361 0.597015 15.4438C0.597015 23.5941 7.20337 30.2003 15.3534 30.2003V29.6198C7.54619 29.594 1.22469 23.2559 1.22513 15.44C1.22617 7.62778 7.54715 1.29457 15.3534 1.26782V0.683594ZM15.3534 0.683594V1.26782C15.3682 1.26778 15.3886 1.26782 15.403 1.26782C22.3228 1.26782 27.9333 6.87623 27.9333 13.7962C27.9336 20.7124 22.323 26.3245 15.403 26.3245V26.8056C22.5937 26.7798 28.4146 20.9405 28.4144 13.7446C28.4143 6.53282 22.566 0.683594 15.3534 0.683594Z" fill="#9C0710"/>
<path d="M15.4393 20.9824C13.8336 20.9824 12.5315 22.2829 12.5316 23.8901C12.5316 25.4935 13.8336 26.7977 15.4393 26.7977V26.5391C16.9704 26.5391 18.2116 25.2977 18.2115 23.7681C18.2115 22.2386 16.9704 20.9972 15.4393 20.9972V20.9824Z" fill="#9C0710"/>
</svg>
