<svg width="29" height="31" viewBox="0 0 29 31" fill="none" xmlns="http://www.w3.org/2000/svg">
<path d="M15.3534 0.68396C7.20323 0.68396 0.596689 7.29397 0.596985 15.4442C0.596985 23.5944 7.20334 30.2006 15.3534 30.2006V29.6202C7.54616 29.5944 1.22466 23.2563 1.2251 15.4404C1.22614 7.62815 7.54712 1.29493 15.3534 1.26818V0.68396ZM15.3534 0.68396V1.26818C15.3682 1.26815 15.3886 1.26818 15.403 1.26818C22.3228 1.26818 27.9332 6.8766 27.9332 13.7965C27.9335 20.7128 22.323 26.3249 15.403 26.3249V26.806C22.5936 26.7802 28.4146 20.9409 28.4144 13.745C28.4143 6.53319 22.566 0.68396 15.3534 0.68396Z" fill="#C71F98"/>
<path d="M15.4393 20.9827C13.8336 20.9827 12.5315 22.2832 12.5316 23.8903C12.5316 25.4938 13.8336 26.7979 15.4393 26.7979V26.5393C16.9704 26.5393 18.2116 25.2979 18.2115 23.7684C18.2115 22.2388 16.9703 20.9974 15.4393 20.9974V20.9827Z" fill="#C71F98"/>
</svg>
