<svg width="29" height="31" viewBox="0 0 29 31" fill="none" xmlns="http://www.w3.org/2000/svg">
<path d="M15.3534 0.68399C7.20323 0.68399 0.596689 7.29401 0.596985 15.4442C0.596985 23.5945 7.20334 30.2007 15.3534 30.2007V29.6202C7.54616 29.5944 1.22466 23.2563 1.2251 15.4404C1.22614 7.62818 7.54712 1.29496 15.3534 1.26821V0.68399ZM15.3534 0.68399V1.26821C15.3682 1.26818 15.3886 1.26821 15.403 1.26821C22.3228 1.26821 27.9332 6.87663 27.9332 13.7966C27.9335 20.7128 22.323 26.3249 15.403 26.3249V26.806C22.5936 26.7802 28.4146 20.9409 28.4144 13.745C28.4143 6.53322 22.566 0.68399 15.3534 0.68399Z" fill="#FFE8F8"/>
<path d="M15.4393 20.9827C13.8336 20.9827 12.5315 22.2832 12.5316 23.8904C12.5316 25.4938 13.8336 26.798 15.4393 26.798V26.5394C16.9704 26.5394 18.2116 25.298 18.2115 23.7684C18.2115 22.2389 16.9703 20.9975 15.4393 20.9975V20.9827Z" fill="#FFE8F8"/>
</svg>
