<svg width="24" height="24" viewBox="0 0 24 24" fill="none" xmlns="http://www.w3.org/2000/svg">
<g clip-path="url(#clip0_81_2781)">
<path d="M12.0008 0C8.74183 0 8.33284 0.0142502 7.05286 0.0725002C5.77539 0.131 4.9034 0.33325 4.14042 0.63C3.35118 0.9365 2.6817 1.3465 2.01471 2.01375C1.34722 2.68075 0.937231 3.35025 0.629737 4.13925C0.332243 4.9025 0.129747 5.77475 0.0722485 7.05175C0.0149996 8.33175 0 8.741 0 12C0 15.259 0.0144999 15.6668 0.0724988 16.9468C0.131248 18.2243 0.333493 19.0962 0.629988 19.8592C0.936732 20.6485 1.34672 21.318 2.01396 21.985C2.6807 22.6525 3.35018 23.0635 4.13892 23.37C4.9024 23.6668 5.77464 23.869 7.05186 23.9275C8.33183 23.9857 8.74058 24 11.9993 24C15.2584 24 15.6662 23.9857 16.9462 23.9275C18.2236 23.869 19.0966 23.6668 19.8601 23.37C20.6491 23.0635 21.3176 22.6525 21.9843 21.985C22.6518 21.318 23.0618 20.6485 23.3693 19.8595C23.6643 19.0963 23.8668 18.224 23.9268 16.947C23.9843 15.667 23.9993 15.259 23.9993 12C23.9993 8.741 23.9843 8.332 23.9268 7.052C23.8668 5.7745 23.6643 4.9025 23.3693 4.1395C23.0618 3.35025 22.6518 2.68075 21.9843 2.01375C21.3168 1.34625 20.6493 0.93625 19.8594 0.63C19.0944 0.33325 18.2219 0.131 16.9444 0.0725002C15.6644 0.0142502 15.2569 0 11.997 0H12.0008ZM10.9243 2.1625C11.2438 2.162 11.6003 2.1625 12.0008 2.1625C15.2047 2.1625 15.5844 2.174 16.8497 2.2315C18.0196 2.285 18.6546 2.4805 19.0776 2.64475C19.6376 2.86225 20.0369 3.12225 20.4566 3.54225C20.8766 3.96225 21.1366 4.36225 21.3546 4.92225C21.5188 5.34475 21.7146 5.97975 21.7678 7.14975C21.8253 8.41475 21.8378 8.79475 21.8378 11.9972C21.8378 15.1997 21.8253 15.5797 21.7678 16.8447C21.7143 18.0147 21.5188 18.6498 21.3546 19.0723C21.1371 19.6323 20.8766 20.031 20.4566 20.4508C20.0366 20.8708 19.6379 21.1307 19.0776 21.3482C18.6551 21.5132 18.0196 21.7082 16.8497 21.7617C15.5847 21.8192 15.2047 21.8318 12.0008 21.8318C8.79657 21.8318 8.41683 21.8192 7.15186 21.7617C5.98188 21.7077 5.34689 21.5122 4.92365 21.348C4.36366 21.1305 3.96367 20.8705 3.54368 20.4505C3.12369 20.0305 2.86369 19.6315 2.6457 19.0713C2.48145 18.6488 2.2857 18.0137 2.23246 16.8438C2.17496 15.5788 2.16346 15.1987 2.16346 11.9942C2.16346 8.78975 2.17496 8.41175 2.23246 7.14675C2.28595 5.97675 2.48145 5.34175 2.6457 4.91875C2.86319 4.35875 3.12369 3.95875 3.54368 3.53875C3.96367 3.11875 4.36366 2.85875 4.92365 2.64075C5.34664 2.47575 5.98188 2.28075 7.15186 2.227C8.25884 2.177 8.68783 2.162 10.9243 2.1595V2.1625ZM18.4061 4.155C17.6112 4.155 16.9662 4.79925 16.9662 5.5945C16.9662 6.3895 17.6112 7.0345 18.4061 7.0345C19.2011 7.0345 19.8461 6.3895 19.8461 5.5945C19.8461 4.7995 19.2011 4.1545 18.4061 4.1545V4.155ZM12.0008 5.8375C8.59758 5.8375 5.83838 8.59675 5.83838 12C5.83838 15.4032 8.59758 18.1612 12.0008 18.1612C15.4039 18.1612 18.1621 15.4032 18.1621 12C18.1621 8.59675 15.4039 5.8375 12.0008 5.8375ZM12.0008 8C14.2097 8 16.0007 9.79075 16.0007 12C16.0007 14.209 14.2097 16 12.0008 16C9.79156 16 8.00084 14.209 8.00084 12C8.00084 9.79075 9.79156 8 12.0008 8Z" fill="#F1FF00"/>
</g>
<defs>
<clipPath id="clip0_81_2781">
<rect width="24" height="24" fill="white"/>
</clipPath>
</defs>
</svg>
