<svg width="32" height="32" viewBox="0 0 32 32" fill="none" xmlns="http://www.w3.org/2000/svg">
<path d="M16.001 0C11.6558 0 11.1104 0.0190003 9.40381 0.096667C7.70051 0.174667 6.53787 0.444333 5.52056 0.84C4.46824 1.24867 3.5756 1.79533 2.68628 2.685C1.7963 3.57433 1.24964 4.467 0.83965 5.519C0.442991 6.53667 0.172996 7.69967 0.0963313 9.40233C0.0199995 11.109 0 11.6547 0 16C0 20.3453 0.0193333 20.889 0.096665 22.5957C0.174997 24.299 0.444658 25.4617 0.839983 26.479C1.24898 27.5313 1.79563 28.424 2.68528 29.3133C3.57426 30.2033 4.46691 30.7513 5.51856 31.16C6.53654 31.5557 7.69951 31.8253 9.40248 31.9033C11.1091 31.981 11.6541 32 15.999 32C20.3446 32 20.8883 31.981 22.5949 31.9033C24.2982 31.8253 25.4622 31.5557 26.4801 31.16C27.5321 30.7513 28.4234 30.2033 29.3124 29.3133C30.2024 28.424 30.7491 27.5313 31.159 26.4793C31.5524 25.4617 31.8224 24.2987 31.9024 22.596C31.979 20.8893 31.999 20.3453 31.999 16C31.999 11.6547 31.979 11.1093 31.9024 9.40267C31.8224 7.69933 31.5524 6.53667 31.159 5.51933C30.7491 4.467 30.2024 3.57433 29.3124 2.685C28.4224 1.795 27.5325 1.24833 26.4791 0.84C25.4592 0.444333 24.2958 0.174667 22.5925 0.096667C20.8859 0.0190003 20.3426 0 15.996 0H16.001ZM14.5657 2.88333C14.9917 2.88267 15.467 2.88333 16.001 2.88333C20.2729 2.88333 20.7793 2.89867 22.4662 2.97533C24.0262 3.04667 24.8728 3.30733 25.4368 3.52633C26.1835 3.81633 26.7158 4.163 27.2755 4.723C27.8354 5.283 28.1821 5.81633 28.4728 6.563C28.6918 7.12633 28.9528 7.973 29.0238 9.533C29.1004 11.2197 29.1171 11.7263 29.1171 15.9963C29.1171 20.2663 29.1004 20.773 29.0238 22.4597C28.9524 24.0197 28.6918 24.8663 28.4728 25.4297C28.1828 26.1763 27.8354 26.708 27.2755 27.2677C26.7155 27.8277 26.1838 28.1743 25.4368 28.4643C24.8735 28.6843 24.0262 28.9443 22.4662 29.0157C20.7796 29.0923 20.2729 29.109 16.001 29.109C11.7288 29.109 11.2224 29.0923 9.53581 29.0157C7.97584 28.9437 7.12919 28.683 6.56487 28.464C5.81822 28.174 5.28489 27.8273 4.72491 27.2673C4.16492 26.7073 3.81826 26.1753 3.5276 25.4283C3.3086 24.865 3.04761 24.0183 2.97661 22.4583C2.89994 20.7717 2.88461 20.265 2.88461 15.9923C2.88461 11.7197 2.89994 11.2157 2.97661 9.529C3.04794 7.969 3.3086 7.12233 3.5276 6.55833C3.81759 5.81167 4.16492 5.27833 4.72491 4.71833C5.28489 4.15833 5.81822 3.81167 6.56487 3.521C7.12886 3.301 7.97584 3.041 9.53581 2.96933C11.0118 2.90267 11.5838 2.88267 14.5657 2.87933V2.88333ZM24.5415 5.54C23.4815 5.54 22.6215 6.399 22.6215 7.45933C22.6215 8.51933 23.4815 9.37933 24.5415 9.37933C25.6015 9.37933 26.4615 8.51933 26.4615 7.45933C26.4615 6.39933 25.6015 5.53933 24.5415 5.53933V5.54ZM16.001 7.78333C11.4634 7.78333 7.78451 11.4623 7.78451 16C7.78451 20.5377 11.4634 24.215 16.001 24.215C20.5386 24.215 24.2162 20.5377 24.2162 16C24.2162 11.4623 20.5386 7.78333 16.001 7.78333ZM16.001 10.6667C18.9463 10.6667 21.3342 13.0543 21.3342 16C21.3342 18.9453 18.9463 21.3333 16.001 21.3333C13.0554 21.3333 10.6678 18.9453 10.6678 16C10.6678 13.0543 13.0554 10.6667 16.001 10.6667Z" fill="#FFE8F8"/>
</svg>
