<svg width="33" height="33" viewBox="0 0 33 33" fill="none" xmlns="http://www.w3.org/2000/svg">
<g clip-path="url(#clip0_4_36)">
<path d="M17.3458 0C8.23253 0 0.844286 7.38547 0.84436 16.5C0.844434 25.6145 8.23264 33 17.3458 33V29.6195C25.5255 29.6195 32.1556 22.9877 32.1557 14.8079C32.1556 6.62808 25.5255 0 17.3458 0Z" fill="#07002A"/>
<path d="M17.3535 1.68396C9.20329 1.68396 2.59675 8.29397 2.59705 16.4442C2.59705 24.5944 9.2034 31.2006 17.3535 31.2006V30.6202C9.54622 30.5944 3.22472 24.2563 3.22516 16.4404C3.2262 8.62815 9.54718 2.29493 17.3535 2.26818V1.68396ZM17.3535 1.68396V2.26818C17.3682 2.26815 17.3886 2.26818 17.403 2.26818C24.3229 2.26818 29.9333 7.8766 29.9333 14.7965C29.9336 21.7128 24.3231 27.3249 17.403 27.3249V27.806C24.5937 27.7802 30.4147 21.9409 30.4144 14.745C30.4144 7.53319 24.566 1.68396 17.3535 1.68396Z" fill="#F1FF00"/>
<path d="M17.4394 21.9827C15.8336 21.9827 14.5315 23.2832 14.5316 24.8904C14.5316 26.4938 15.8336 27.798 17.4394 27.798V27.5394C18.9704 27.5394 20.2116 26.298 20.2116 24.7684C20.2116 23.2389 18.9704 21.9975 17.4394 21.9975V21.9827Z" fill="#F1FF00"/>
</g>
<defs>
<clipPath id="clip0_4_36">
<rect width="33" height="33" fill="white"/>
</clipPath>
</defs>
</svg>
